<svg version="1.1" viewBox="0.0 0.0 192.0 192.0" fill="none" stroke="none" stroke-linecap="square" stroke-miterlimit="10" xmlns:xlink="http://www.w3.org/1999/xlink" xmlns="http://www.w3.org/2000/svg"><clipPath id="p.0"><path d="m0 0l192.0 0l0 192.0l-192.0 0l0 -192.0z" clip-rule="nonzero"/></clipPath><g clip-path="url(#p.0)"><path fill="#000000" fill-opacity="0.0" d="m0 0l192.0 0l0 192.0l-192.0 0z" fill-rule="evenodd"/><path fill="#059669" d="m0.010498688 0.13648294l192.0 0l0 192.0l-192.0 0z" fill-rule="evenodd"/><path fill="#ffffff" d="m148.46681 26.836884l14.897644 1.6535435c6.1035156E-5 7.6293945E-6 1.2207031E-4 4.196167E-5 1.6784668E-4 9.346008E-5c3.0517578E-5 5.1498413E-5 6.1035156E-5 1.1634827E-4 4.5776367E-5 1.8310547E-4l-1.6874084 14.932144l0 0c-0.9294281 8.225922 -8.352783 14.154034 -16.58052 13.240807l-14.897644 -1.6535416l0 0c-1.373291E-4 -1.5258789E-5 -2.4414062E-4 -1.373291E-4 -2.1362305E-4 -2.746582E-4l1.6874084 -14.932144l0 0c0.9294281 -8.225925 8.352783 -14.154036 16.58052 -13.24081z" fill-rule="evenodd"/><path stroke="#ffffff" stroke-width="8.0" stroke-linejoin="round" stroke-linecap="butt" d="m148.46681 26.836884l14.897644 1.6535435c6.1035156E-5 7.6293945E-6 1.2207031E-4 4.196167E-5 1.6784668E-4 9.346008E-5c3.0517578E-5 5.1498413E-5 6.1035156E-5 1.1634827E-4 4.5776367E-5 1.8310547E-4l-1.6874084 14.932144l0 0c-0.9294281 8.225922 -8.352783 14.154034 -16.58052 13.240807l-14.897644 -1.6535416l0 0c-1.373291E-4 -1.5258789E-5 -2.4414062E-4 -1.373291E-4 -2.1362305E-4 -2.746582E-4l1.6874084 -14.932144l0 0c0.9294281 -8.225925 8.352783 -14.154036 16.58052 -13.24081z" fill-rule="evenodd"/><path fill="#ffffff" d="m28.633858 109.00394l0 0c0 -31.928146 25.882877 -57.811024 57.811028 -57.811024l0 0c15.332436 0 30.036896 6.090786 40.878563 16.93246c10.841667 10.841667 16.932457 25.546127 16.932457 40.878563l0 0c0 31.928146 -25.882874 57.81102 -57.81102 57.81102l0 0c-31.92815 0 -57.811028 -25.882874 -57.811028 -57.81102z" fill-rule="evenodd"/><path stroke="#ffffff" stroke-width="1.0" stroke-linejoin="round" stroke-linecap="butt" d="m28.633858 109.00394l0 0c0 -31.928146 25.882877 -57.811024 57.811028 -57.811024l0 0c15.332436 0 30.036896 6.090786 40.878563 16.93246c10.841667 10.841667 16.932457 25.546127 16.932457 40.878563l0 0c0 31.928146 -25.882874 57.81102 -57.81102 57.81102l0 0c-31.92815 0 -57.811028 -25.882874 -57.811028 -57.81102z" fill-rule="evenodd"/></g></svg>